# xmcd
#
# Track frame offsets: 
#        150
#        18227
#        43945
#        63340
#        81172
#        96542
#        122360
#        139590
#        159630
#        184462
#        202280
#
# Disc length: 2810 seconds
#
# Revision: 1
# Processed by: cddbd v1.4PL0 Copyright (c) Steve Scherf et al.
# Submitted via: ExactAudioCopy v0.90b3
#
DISCID=9e0af80b
DTITLE=Joe Henry - Fuse
DYEAR=1900
DGENRE=
TTITLE0=Monkey
TTITLE1=Angels
TTITLE2=Fuse
TTITLE3=Skin and Teeth
TTITLE4=Fat
TTITLE5=Want Too Much
TTITLE6=Curt Flood
TTITLE7=Like She Was a Hammer
TTITLE8=Great Lake
TTITLE9=Beautiful Hat
TTITLE10=We'll Meet Again
EXTD=
EXTT0=
EXTT1=
EXTT2=
EXTT3=
EXTT4=
EXTT5=
EXTT6=
EXTT7=
EXTT8=
EXTT9=
EXTT10=
PLAYORDER=
